<svg xmlns="http://www.w3.org/2000/svg" width="39.81" height="37.31" viewBox="0 0 39.81 37.31">
  <metadata><?xpacket begin="﻿" id="W5M0MpCehiHzreSzNTczkc9d"?>
<x:xmpmeta xmlns:x="adobe:ns:meta/" x:xmptk="Adobe XMP Core 5.6-c138 79.159824, 2016/09/14-01:09:01        ">
   <rdf:RDF xmlns:rdf="http://www.w3.org/1999/02/22-rdf-syntax-ns#">
      <rdf:Description rdf:about=""/>
   </rdf:RDF>
</x:xmpmeta>
                                                                                                    
                                                                                                    
                                                                                                    
                                                                                                    
                                                                                                    
                                                                                                    
                                                                                                    
                                                                                                    
                                                                                                    
                                                                                                    
                                                                                                    
                                                                                                    
                                                                                                    
                                                                                                    
                                                                                                    
                                                                                                    
                                                                                                    
                                                                                                    
                                                                                                    
                                                                                                    
                           
<?xpacket end="w"?></metadata>
<defs>
    <style>
      .cls-1 {
        fill: #fff;
        fill-rule: evenodd;
      }
    </style>
  </defs>
  <path id="Icon" class="cls-1" d="M1111.55,1157.37l4.24,4.25-3.52,3.51-5.7-5.7v-8.49h4.98v6.43Zm9.95-18.87a7.46,7.46,0,0,1,4.28,13.57,17.922,17.922,0,0,0-10.39-10.39,7.455,7.455,0,0,1,6.11-3.18m-18.77,3.18a17.938,17.938,0,0,0-10.4,10.39,7.463,7.463,0,1,1,10.4-10.39m6.33,1.8a14.926,14.926,0,0,0-11.53,24.41l-0.91,7.92h2.49l2.48-4.48a14.932,14.932,0,0,0,14.93,0l2.49,4.48h2.49l-0.92-7.92a14.926,14.926,0,0,0-11.52-24.41m0,24.87a9.95,9.95,0,1,1,9.95-9.95,9.944,9.944,0,0,1-9.95,9.95" transform="translate(-1089.16 -1138.5)"/>
</svg>
