<svg xmlns="http://www.w3.org/2000/svg" width="68.94" height="56" viewBox="0 0 68.94 56">
  <metadata><?xpacket begin="﻿" id="W5M0MpCehiHzreSzNTczkc9d"?>
<x:xmpmeta xmlns:x="adobe:ns:meta/" x:xmptk="Adobe XMP Core 5.6-c138 79.159824, 2016/09/14-01:09:01        ">
   <rdf:RDF xmlns:rdf="http://www.w3.org/1999/02/22-rdf-syntax-ns#">
      <rdf:Description rdf:about=""/>
   </rdf:RDF>
</x:xmpmeta>
                                                                                                    
                                                                                                    
                                                                                                    
                                                                                                    
                                                                                                    
                                                                                                    
                                                                                                    
                                                                                                    
                                                                                                    
                                                                                                    
                                                                                                    
                                                                                                    
                                                                                                    
                                                                                                    
                                                                                                    
                                                                                                    
                                                                                                    
                                                                                                    
                                                                                                    
                                                                                                    
                           
<?xpacket end="w"?></metadata>
<defs>
    <style>
      .cls-1 {
        fill: #00c7fc;
        fill-rule: evenodd;
      }
    </style>
  </defs>
  <path id="Icon" class="cls-1" d="M1343.46,4911.63a28.383,28.383,0,0,1-8.12,2.22,14.143,14.143,0,0,0,6.21-7.82,28.124,28.124,0,0,1-8.98,3.43,14.144,14.144,0,0,0-24.09,12.89,40.073,40.073,0,0,1-29.14-14.77,14.159,14.159,0,0,0,4.37,18.89,14.277,14.277,0,0,1-6.4-1.78v0.18a14.152,14.152,0,0,0,11.34,13.87,14.211,14.211,0,0,1-3.72.49,14.457,14.457,0,0,1-2.66-.25,14.159,14.159,0,0,0,13.2,9.82,28.392,28.392,0,0,1-17.56,6.05,26.868,26.868,0,0,1-3.37-.2,40.047,40.047,0,0,0,21.68,6.35c26,0,40.23-21.54,40.23-40.22,0-.62-0.02-1.23-0.05-1.84A29.028,29.028,0,0,0,1343.46,4911.63Z" transform="translate(-1274.53 -4905)"/>
</svg>
