<svg xmlns="http://www.w3.org/2000/svg" width="12.656" height="12.65" viewBox="0 0 12.656 12.65">
  <metadata><?xpacket begin="﻿" id="W5M0MpCehiHzreSzNTczkc9d"?>
<x:xmpmeta xmlns:x="adobe:ns:meta/" x:xmptk="Adobe XMP Core 5.6-c138 79.159824, 2016/09/14-01:09:01        ">
   <rdf:RDF xmlns:rdf="http://www.w3.org/1999/02/22-rdf-syntax-ns#">
      <rdf:Description rdf:about=""/>
   </rdf:RDF>
</x:xmpmeta>
                                                                                                    
                                                                                                    
                                                                                                    
                                                                                                    
                                                                                                    
                                                                                                    
                                                                                                    
                                                                                                    
                                                                                                    
                                                                                                    
                                                                                                    
                                                                                                    
                                                                                                    
                                                                                                    
                                                                                                    
                                                                                                    
                                                                                                    
                                                                                                    
                                                                                                    
                                                                                                    
                           
<?xpacket end="w"?></metadata>
<defs>
    <style>
      .cls-1 {
        fill: #fff;
        fill-rule: evenodd;
      }
    </style>
  </defs>
  <path id="Tool_Icon" data-name="Tool Icon" class="cls-1" d="M988.041,2607.7v-2.37l-1.816-.31a4.807,4.807,0,0,0-.268-0.65l1.069-1.49-1.68-1.68-1.5,1.06a6.752,6.752,0,0,0-.652-0.27l-0.3-1.81h-2.378l-0.3,1.81a6.79,6.79,0,0,0-.654.27l-1.5-1.06-1.68,1.68,1.069,1.49a5.081,5.081,0,0,0-.268.65l-1.814.31v2.37l1.818,0.31a4.95,4.95,0,0,0,.268.64l-1.073,1.5,1.68,1.68,1.506-1.07a4.723,4.723,0,0,0,.641.26l0.3,1.83H982.9l0.3-1.83a4.723,4.723,0,0,0,.641-0.26l1.5,1.07,1.68-1.68-1.071-1.5a5.235,5.235,0,0,0,.266-0.64Zm-6.332.4a1.585,1.585,0,1,1,1.583-1.59,1.586,1.586,0,0,1-1.583,1.59" transform="translate(-975.375 -2600.19)"/>
</svg>
