<svg xmlns="http://www.w3.org/2000/svg" width="131.501" height="31.78" viewBox="0 0 131.501 31.78">
  <metadata><?xpacket begin="﻿" id="W5M0MpCehiHzreSzNTczkc9d"?>
<x:xmpmeta xmlns:x="adobe:ns:meta/" x:xmptk="Adobe XMP Core 5.6-c138 79.159824, 2016/09/14-01:09:01        ">
   <rdf:RDF xmlns:rdf="http://www.w3.org/1999/02/22-rdf-syntax-ns#">
      <rdf:Description rdf:about=""/>
   </rdf:RDF>
</x:xmpmeta>
                                                                                                    
                                                                                                    
                                                                                                    
                                                                                                    
                                                                                                    
                                                                                                    
                                                                                                    
                                                                                                    
                                                                                                    
                                                                                                    
                                                                                                    
                                                                                                    
                                                                                                    
                                                                                                    
                                                                                                    
                                                                                                    
                                                                                                    
                                                                                                    
                                                                                                    
                                                                                                    
                           
<?xpacket end="w"?></metadata>
<defs>
    <style>
      .cls-1 {
        fill: #fff;
        fill-rule: evenodd;
      }
    </style>
  </defs>
  <path id="Logo_4" data-name="Logo 4" class="cls-1" d="M1037.75,7068.69a5.18,5.18,0,0,0-2.09-.43,5.463,5.463,0,0,0-1.95.33,5.819,5.819,0,0,0-2.56,1.8,5.238,5.238,0,0,0-4.22-2.13,5.091,5.091,0,0,0-3.39,1.14v-0.93h-3.22v14.43h3.22v-8.51a2.972,2.972,0,0,1,.87-2.3,2.819,2.819,0,0,1,2.07-.81,2.447,2.447,0,0,1,1.89.8,3.3,3.3,0,0,1,.77,2.28v8.54h3.21v-8.51a3.008,3.008,0,0,1,.87-2.3,2.858,2.858,0,0,1,2.08-.81,2.447,2.447,0,0,1,1.89.8,3.3,3.3,0,0,1,.77,2.28v8.54h3.21v-8.59a6.2,6.2,0,0,0-1.65-4.39A5.531,5.531,0,0,0,1037.75,7068.69Zm11.37-.43a6.914,6.914,0,0,0-5.26,2.17,8.217,8.217,0,0,0,0,10.51,7.448,7.448,0,0,0,10.52-.01,8.187,8.187,0,0,0-.01-10.5A6.877,6.877,0,0,0,1049.12,7068.26Zm2.91,10.56a3.99,3.99,0,0,1-5.82,0,5.26,5.26,0,0,1,0-6.28,3.98,3.98,0,0,1,5.82.01A5.245,5.245,0,0,1,1052.03,7078.82Zm12.23-10.56a6.929,6.929,0,0,0-5.26,2.17,8.2,8.2,0,0,0,.01,10.51,7.436,7.436,0,0,0,10.51-.01,8.17,8.17,0,0,0,0-10.5A6.914,6.914,0,0,0,1064.26,7068.26Zm2.91,10.56a3.979,3.979,0,0,1-5.81,0,5.22,5.22,0,0,1,0-6.28,3.968,3.968,0,0,1,5.81.01A5.245,5.245,0,0,1,1067.17,7078.82Zm14.46-10.15a6.753,6.753,0,0,0-2.5-.41,4.921,4.921,0,0,0-2.68.75,7.726,7.726,0,0,0-.79.59v-1.13h-3.21v14.43h3.21v-8.22a3.284,3.284,0,0,1,.97-2.46,3.328,3.328,0,0,1,2.4-.94,2.909,2.909,0,0,1,2.22.9,3.378,3.378,0,0,1,.86,2.47v8.25h3.21v-8.3a6.307,6.307,0,0,0-1.81-4.68A5.167,5.167,0,0,0,1081.63,7068.67Zm12.25-.41a6.242,6.242,0,0,0-4.1,1.34v-1.13h-3.22v19.66h3.22v-6.38a5.889,5.889,0,0,0,3.97,1.36,6.647,6.647,0,0,0,5.21-2.18,8.108,8.108,0,0,0,.01-10.49A6.537,6.537,0,0,0,1093.88,7068.26Zm-3.17,10.56a5.26,5.26,0,0,1,0-6.28,3.609,3.609,0,0,1,2.91-1.26,3.754,3.754,0,0,1,2.97,1.28,5.025,5.025,0,0,1,0,6.25,3.747,3.747,0,0,1-2.97,1.27A3.579,3.579,0,0,1,1090.71,7078.82Zm12.15-10.35h-0.62v14.43h3.22v-14.43h-2.6Zm-0.08-4.81h-0.62v3.82h3.38v-3.82h-2.76Zm15.21,13.86h-0.42l-0.16.39a3.509,3.509,0,0,1-1.21,1.58,3.093,3.093,0,0,1-1.88.59,4.017,4.017,0,0,1-3.19-1.27,4.883,4.883,0,0,1,.01-6.26,3.534,3.534,0,0,1,1.28-.92,4.573,4.573,0,0,1,1.9-.35,3.1,3.1,0,0,1,1.88.6,3.457,3.457,0,0,1,1.21,1.58l0.16,0.39h3.39l-0.25-.81a6.7,6.7,0,0,0-2.44-3.46,7.35,7.35,0,0,0-4.38-1.32,6.733,6.733,0,0,0-5.17,2.17,8.074,8.074,0,0,0,0,10.5,6.722,6.722,0,0,0,5.17,2.18,7.357,7.357,0,0,0,4.38-1.33,6.616,6.616,0,0,0,2.44-3.46l0.25-.8h-2.97Zm-22.74,13.5a1.169,1.169,0,0,1-.91.45,1.247,1.247,0,0,1-.56-0.12,1.144,1.144,0,0,1-.42-0.33,1.572,1.572,0,0,1-.25-0.52,2.324,2.324,0,0,1-.08-0.67,2.257,2.257,0,0,1,.1-0.71,1.669,1.669,0,0,1,.28-0.53,1.131,1.131,0,0,1,.43-0.33,1.178,1.178,0,0,1,.53-0.12,1.51,1.51,0,0,1,.48.08,1.291,1.291,0,0,1,.4.24V7087h0.56v4.39h-0.56v-0.37Zm0-.54v-1.51a1.175,1.175,0,0,0-.84-0.39,0.674,0.674,0,0,0-.58.31,1.612,1.612,0,0,0-.22.94,1.651,1.651,0,0,0,.2.89,0.661,0.661,0,0,0,.57.3,0.812,0.812,0,0,0,.45-0.13A1.474,1.474,0,0,0,1095.25,7090.48Zm5.19,0.99a1.81,1.81,0,0,1-.63-0.11,1.412,1.412,0,0,1-.49-0.33,1.381,1.381,0,0,1-.32-0.52,1.962,1.962,0,0,1-.11-0.71,1.887,1.887,0,0,1,.11-0.69,1.526,1.526,0,0,1,.3-0.53,1.427,1.427,0,0,1,.47-0.33,1.774,1.774,0,0,1,1.23,0,1.427,1.427,0,0,1,.47.33,1.48,1.48,0,0,1,.3.52,2.193,2.193,0,0,1,.1.7v0.14h-2.39a1.411,1.411,0,0,0,.1.48,1.131,1.131,0,0,0,.2.34,0.985,0.985,0,0,0,.3.2,1.046,1.046,0,0,0,.36.06,1.407,1.407,0,0,0,.28-0.03,1.151,1.151,0,0,0,.25-0.12,0.769,0.769,0,0,0,.18-0.18,0.409,0.409,0,0,0,.07-0.25h0.6a1.215,1.215,0,0,1-.16.44,1.024,1.024,0,0,1-.3.32,1.168,1.168,0,0,1-.42.2A1.591,1.591,0,0,1,1100.44,7091.47Zm0.83-1.98a1.132,1.132,0,0,0-.3-0.68,0.858,0.858,0,0,0-.59-0.23,0.829,0.829,0,0,0-.32.06,0.771,0.771,0,0,0-.27.17,1.148,1.148,0,0,0-.19.28,1.24,1.24,0,0,0-.11.4h1.78Zm4.44,1.98a1.118,1.118,0,0,1-1.36-1.03h0.57c0,0.39.26,0.58,0.79,0.58a1.482,1.482,0,0,0,.31-0.03,0.9,0.9,0,0,0,.22-0.11,0.521,0.521,0,0,0,.14-0.16,0.448,0.448,0,0,0,.04-0.2,0.5,0.5,0,0,0-.03-0.19,0.346,0.346,0,0,0-.14-0.12,1.434,1.434,0,0,0-.28-0.1c-0.12-.04-0.27-0.08-0.47-0.13-0.18-.05-0.35-0.09-0.48-0.14a1.2,1.2,0,0,1-.34-0.17,0.578,0.578,0,0,1-.19-0.25,0.875,0.875,0,0,1,.02-0.73,0.8,0.8,0,0,1,.23-0.29,1.352,1.352,0,0,1,.38-0.19,1.487,1.487,0,0,1,.49-0.07c0.83,0,1.26.3,1.27,0.89h-0.56c-0.02-.3-0.24-0.45-0.67-0.45a1.176,1.176,0,0,0-.27.03,1.023,1.023,0,0,0-.21.08,0.584,0.584,0,0,0-.14.13,0.406,0.406,0,0,0-.04.19,0.342,0.342,0,0,0,.02.15,0.2,0.2,0,0,0,.11.11,1.422,1.422,0,0,0,.26.1c0.12,0.03.27,0.08,0.47,0.12s0.36,0.1.5,0.15a1.343,1.343,0,0,1,.36.18,0.755,0.755,0,0,1,.21.26,1.031,1.031,0,0,1,.07.38,0.9,0.9,0,0,1-.09.4,0.992,0.992,0,0,1-.26.32,1.169,1.169,0,0,1-.4.21A1.735,1.735,0,0,1,1105.71,7091.47Zm4.39-3.85h-0.56V7087h0.56v0.62Zm0,3.77h-0.56v-3.17h0.56v3.17Zm5.58-.24a1.293,1.293,0,0,1-1.39,1.53,2.146,2.146,0,0,1-.53-0.06,1.416,1.416,0,0,1-.41-0.19,0.958,0.958,0,0,1-.26-0.31,0.9,0.9,0,0,1-.09-0.4h0.59c0,0.34.23,0.52,0.69,0.52a1.361,1.361,0,0,0,.36-0.05,0.563,0.563,0,0,0,.26-0.17,0.847,0.847,0,0,0,.16-0.33,1.9,1.9,0,0,0,.06-0.52v-0.15a1.169,1.169,0,0,1-.91.45,1.19,1.19,0,0,1-.98-0.45,1.572,1.572,0,0,1-.25-0.52,2.324,2.324,0,0,1-.08-0.67,2.257,2.257,0,0,1,.1-0.71,1.669,1.669,0,0,1,.28-0.53,1.131,1.131,0,0,1,.43-0.33,1.178,1.178,0,0,1,.53-0.12,1.4,1.4,0,0,1,.47.08,1.227,1.227,0,0,1,.41.24v-0.24h0.56v2.93Zm-0.56-.67v-1.51a1.179,1.179,0,0,0-.85-0.39,0.67,0.67,0,0,0-.57.31,1.612,1.612,0,0,0-.22.94,1.651,1.651,0,0,0,.2.89,0.661,0.661,0,0,0,.57.3,0.812,0.812,0,0,0,.45-0.13A1.614,1.614,0,0,0,1115.12,7090.48Zm3.78-1.86a1.586,1.586,0,0,1,.44-0.36,1.115,1.115,0,0,1,.5-0.12,1,1,0,0,1,1.08,1.18v2.07h-0.57v-2.05a1.548,1.548,0,0,0-.03-0.33,0.616,0.616,0,0,0-.11-0.23,0.4,0.4,0,0,0-.18-0.13,0.7,0.7,0,0,0-.27-0.04,1.177,1.177,0,0,0-.86.51v2.27h-0.57v-3.17h0.57v0.4Zm-122.189-3.97a7.9,7.9,0,0,0,8.4-5.15c0.02-.05.03-0.1,0.05-0.15a0.127,0.127,0,0,1-.06.01,4.311,4.311,0,0,1-1.39.23,4.442,4.442,0,0,1-4.241-5.74,8.743,8.743,0,0,1,6.8-8.42,16.634,16.634,0,0,1,3.81-.44,16.929,16.929,0,0,1,4.1.51,14.246,14.246,0,0,0-22.128,17.85q0.544,0.24,1.109.45A16.028,16.028,0,0,0,996.711,7084.65Zm16.359-11.13a7.9,7.9,0,0,0-8.61-2.73,4.456,4.456,0,0,1,2.78,1.69c0.15,0.13.32,0.25,0.46,0.38a8.746,8.746,0,0,1,1.66,10.78,16.838,16.838,0,0,1-5.39,5.76,14.259,14.259,0,0,0,12.37-7.65,16.2,16.2,0,0,0-1.39-5.1A16.767,16.767,0,0,0,1013.07,7073.52Zm2.08-6.86a16.126,16.126,0,0,0-8.69-.41,7.87,7.87,0,0,0-5.91,5.8,4.255,4.255,0,0,1,1.25-.89,7.994,7.994,0,0,1,1.35-.78,8.769,8.769,0,0,1,10.59,2.63,17.89,17.89,0,0,1,1.98,3.28,16.837,16.837,0,0,1,1.27,4.03A14.242,14.242,0,0,0,1015.15,7066.66Zm-8.67,19.51a16.418,16.418,0,0,0,2.15-2.95,7.926,7.926,0,0,0-.53-8.66,5.663,5.663,0,0,1,.04.6,4.412,4.412,0,0,1-1.78,3.54c-0.05.05-.12,0.1-0.18,0.15a7.793,7.793,0,0,1-.28.94,8.733,8.733,0,0,1-9.29,5.69,16.282,16.282,0,0,1-3.509-.81,14.228,14.228,0,0,0,9.329,4.68A16.258,16.258,0,0,0,1006.48,7086.17Z" transform="translate(-989.469 -7060.91)"/>
</svg>
