<svg xmlns="http://www.w3.org/2000/svg" width="121.906" height="32.88" viewBox="0 0 121.906 32.88">
  <metadata><?xpacket begin="﻿" id="W5M0MpCehiHzreSzNTczkc9d"?>
<x:xmpmeta xmlns:x="adobe:ns:meta/" x:xmptk="Adobe XMP Core 5.6-c138 79.159824, 2016/09/14-01:09:01        ">
   <rdf:RDF xmlns:rdf="http://www.w3.org/1999/02/22-rdf-syntax-ns#">
      <rdf:Description rdf:about=""/>
   </rdf:RDF>
</x:xmpmeta>
                                                                                                    
                                                                                                    
                                                                                                    
                                                                                                    
                                                                                                    
                                                                                                    
                                                                                                    
                                                                                                    
                                                                                                    
                                                                                                    
                                                                                                    
                                                                                                    
                                                                                                    
                                                                                                    
                                                                                                    
                                                                                                    
                                                                                                    
                                                                                                    
                                                                                                    
                                                                                                    
                           
<?xpacket end="w"?></metadata>
<defs>
    <style>
      .cls-1 {
        fill: #fff;
        fill-rule: evenodd;
      }
    </style>
  </defs>
  <path id="Logo_3" data-name="Logo 3" class="cls-1" d="M920.984,7071.27a3.42,3.42,0,1,1,3.418-3.42A3.422,3.422,0,0,1,920.984,7071.27Zm0-6.4a2.98,2.98,0,1,0,2.98,2.98A2.987,2.987,0,0,0,920.984,7064.87Zm-1.214,1.17a6.749,6.749,0,0,1,1.129-.08,1.929,1.929,0,0,1,1.215.29,0.972,0.972,0,0,1,.346.79,1.006,1.006,0,0,1-.663.93v0.01a0.965,0.965,0,0,1,.5.7,10.554,10.554,0,0,0,.305,1.06h-0.868a4.684,4.684,0,0,1-.262-0.87,0.569,0.569,0,0,0-.608-0.6H920.61v1.47h-0.84v-3.7Zm0.84,1.61h0.333a0.571,0.571,0,0,0,.676-0.54,0.531,0.531,0,0,0-.626-0.52,2.133,2.133,0,0,0-.383.03v1.03Zm-88.2,15.25s-1.321-.55-2.365-0.9a1.615,1.615,0,0,1-.769-0.45,3.6,3.6,0,0,0-6.584-1l-0.15-.01a3.84,3.84,0,0,1,2.1-2.23,3.609,3.609,0,0,0-3.57-3.15,3.78,3.78,0,0,0-.955.14,4.3,4.3,0,0,1,.642,2.16,4.028,4.028,0,0,1-1.067,2.68,4.8,4.8,0,0,0,.545-2.2,4.869,4.869,0,1,0-9.737,0,4.818,4.818,0,0,0,.609,2.32,4.065,4.065,0,0,1-1.2-2.8,4.294,4.294,0,0,1,.273-1.43,3.628,3.628,0,0,0-1.979-.59,3.677,3.677,0,0,0-2.684,6.2,2.108,2.108,0,0,1-.653.34c-1.046.34-2.367,0.9-2.367,0.9h9.691l-0.018.02h20.239Zm-10.993-15.56c-0.186-2.46-1.439-3.95-2.5-5.85,0.788-9.18-2.809-11.46-2.809-11.46s-3.253,2.28-2.464,11.46c-1.067,1.9-2.32,3.39-2.5,5.85l2.967-1.16a7.712,7.712,0,0,0,2.168.74h0.01a5.67,5.67,0,0,0,2.169-.74Zm0,0c-0.186-2.46-1.439-3.95-2.5-5.85,0.788-9.18-2.809-11.46-2.809-11.46s-3.253,2.28-2.464,11.46c-1.067,1.9-2.32,3.39-2.5,5.85l2.967-1.16a7.712,7.712,0,0,0,2.168.74h0.01a5.67,5.67,0,0,0,2.169-.74Zm-3.223,2.44-0.753-2.18a3.047,3.047,0,0,1-.979.52,3.151,3.151,0,0,1-.991-0.52l-0.754,2.18,0.853-.92-0.533,3.37,0.9-.84h0c0.074-.02.186,0.46,0.262,0.46,0.055,0,.156.52,0.214,0.52s0.253-.52.308-0.52c0.076,0,.188-0.48.262-0.46h0l0.9,0.84-0.533-3.37Zm21.413,12.86h-2.589l2.938-14.2H843.8a14.479,14.479,0,0,1,1.584.07,5.891,5.891,0,0,1,1.162.21,3.774,3.774,0,0,1,2.054,1.27,3.313,3.313,0,0,1,.651,2.05,5.238,5.238,0,0,1-.239,1.61,3.865,3.865,0,0,1-.751,1.36,4.824,4.824,0,0,1-1.317,1.05,7.154,7.154,0,0,1-1.924.7v0.04l3.15,5.84h-2.864l-2.844-5.5h-1.719Zm1.592-7.67h1c0.475,0,.9-0.02,1.274-0.05a5.591,5.591,0,0,0,1.008-.17,3.415,3.415,0,0,0,1.59-.9,2.257,2.257,0,0,0,.584-1.61,1.646,1.646,0,0,0-.233-0.89,1.38,1.38,0,0,0-.764-0.56,3.04,3.04,0,0,0-.656-0.13,9.567,9.567,0,0,0-1.01-.04h-1.887Zm16.857-6.79a6.967,6.967,0,0,1,2.254.34,4.769,4.769,0,0,1,1.735,1.03,4.586,4.586,0,0,1,1.113,1.7,6.44,6.44,0,0,1,.393,2.34,10.722,10.722,0,0,1-.176,1.83,11.254,11.254,0,0,1-1.585,4.06,7.446,7.446,0,0,1-1.523,1.74,7.223,7.223,0,0,1-2.085,1.22,7.377,7.377,0,0,1-2.705.46,6.973,6.973,0,0,1-2.255-.34,4.5,4.5,0,0,1-2.848-2.73,6.382,6.382,0,0,1-.392-2.34,11.225,11.225,0,0,1,1.76-5.89,7.846,7.846,0,0,1,1.523-1.74,7.223,7.223,0,0,1,2.085-1.22A7.382,7.382,0,0,1,858.06,7068.18Zm-0.181,2.19a4.081,4.081,0,0,0-1.581.3,4.8,4.8,0,0,0-1.31.81,5.761,5.761,0,0,0-1.04,1.21,7.9,7.9,0,0,0-.754,1.47,9.016,9.016,0,0,0-.455,1.63,9.111,9.111,0,0,0-.155,1.65,4.32,4.32,0,0,0,.213,1.42,2.83,2.83,0,0,0,.609,1.02,2.489,2.489,0,0,0,.972.62,3.7,3.7,0,0,0,1.283.21,4.074,4.074,0,0,0,1.581-.3,4.818,4.818,0,0,0,1.311-.81,5.756,5.756,0,0,0,1.039-1.21,7.9,7.9,0,0,0,.754-1.47,9.1,9.1,0,0,0,.456-1.63,9.2,9.2,0,0,0,.154-1.65,3.332,3.332,0,0,0-.822-2.44A3.047,3.047,0,0,0,857.879,7070.37Zm15.762,0a5.282,5.282,0,0,0-1.709.27,5.208,5.208,0,0,0-1.427.73,5.094,5.094,0,0,0-1.1,1.11,6.554,6.554,0,0,0-.791,1.38,7.825,7.825,0,0,0-.477,1.57,8.726,8.726,0,0,0-.159,1.66,4.625,4.625,0,0,0,.292,1.77,2.7,2.7,0,0,0,.8,1.11,3.029,3.029,0,0,0,1.192.57,6.222,6.222,0,0,0,1.46.17,9.617,9.617,0,0,0,1.745-.16,10.95,10.95,0,0,0,1.8-.47l-0.467,2.29a8.829,8.829,0,0,1-1.846.42,14.733,14.733,0,0,1-1.782.11,7.929,7.929,0,0,1-2.351-.32,4.766,4.766,0,0,1-1.829-1,4.479,4.479,0,0,1-1.189-1.74,6.808,6.808,0,0,1-.425-2.53,11.357,11.357,0,0,1,.207-2.12,10.439,10.439,0,0,1,.637-2.1,9.409,9.409,0,0,1,1.082-1.9,7.32,7.32,0,0,1,1.554-1.57,7.191,7.191,0,0,1,2.091-1.06,8.486,8.486,0,0,1,2.567-.38,11.317,11.317,0,0,1,1.724.14,10.731,10.731,0,0,1,1.809.41l-0.436,2.12a14.431,14.431,0,0,0-1.5-.35A8.689,8.689,0,0,0,873.641,7070.37Zm3.546,12.27,2.938-14.2h2.59l-1.306,6.32h0.043l5.878-6.32h3.2l-6.779,7.14,4.508,7.06h-2.981l-4.106-6.56h-0.042l-1.358,6.56h-2.589Zm15.675-2.18h6.7l-0.446,2.18h-9.283l2.938-14.2h8.9l-0.456,2.18h-6.3l-0.765,3.67h5.411l-0.446,2.17H893.7Zm15.35,2.18h-2.588l2.493-12.02H903.66l0.436-2.18h11.512l-0.447,2.18h-4.455Z" transform="translate(-802.5 -7050.03)"/>
</svg>
