<svg xmlns="http://www.w3.org/2000/svg" width="111.813" height="33.12" viewBox="0 0 111.813 33.12">
  <metadata><?xpacket begin="﻿" id="W5M0MpCehiHzreSzNTczkc9d"?>
<x:xmpmeta xmlns:x="adobe:ns:meta/" x:xmptk="Adobe XMP Core 5.6-c138 79.159824, 2016/09/14-01:09:01        ">
   <rdf:RDF xmlns:rdf="http://www.w3.org/1999/02/22-rdf-syntax-ns#">
      <rdf:Description rdf:about=""/>
   </rdf:RDF>
</x:xmpmeta>
                                                                                                    
                                                                                                    
                                                                                                    
                                                                                                    
                                                                                                    
                                                                                                    
                                                                                                    
                                                                                                    
                                                                                                    
                                                                                                    
                                                                                                    
                                                                                                    
                                                                                                    
                                                                                                    
                                                                                                    
                                                                                                    
                                                                                                    
                                                                                                    
                                                                                                    
                                                                                                    
                           
<?xpacket end="w"?></metadata>
<defs>
    <style>
      .cls-1 {
        fill: #fff;
        fill-rule: evenodd;
      }
    </style>
  </defs>
  <path id="Logo_2" data-name="Logo 2" class="cls-1" d="M634.838,7060.9h-5.319l-0.1.5-2.766,13.39a8.943,8.943,0,0,1-.587,1.93,3.942,3.942,0,0,1-.832,1.21,2.89,2.89,0,0,1-1.1.65,5.248,5.248,0,0,1-1.553.21,4.706,4.706,0,0,1-1.218-.14,1.442,1.442,0,0,1-.653-0.34,1.34,1.34,0,0,1-.35-0.58,3.064,3.064,0,0,1-.129-0.95,8.585,8.585,0,0,1,.18-1.61l2.766-13.52,0.152-.75h-5.3l-0.1.5-2.748,13.42a10.9,10.9,0,0,0-.29,2.39,7.39,7.39,0,0,0,.385,2.44,4.724,4.724,0,0,0,1.328,1.98,6.187,6.187,0,0,0,2.307,1.23,11.118,11.118,0,0,0,3.174.4,12.526,12.526,0,0,0,3.581-.48,8.178,8.178,0,0,0,2.912-1.51,8.541,8.541,0,0,0,2.09-2.59,13.4,13.4,0,0,0,1.246-3.6l2.779-13.43Zm-18.83,0H602.983l-0.1.5-0.666,3.22-0.154.75h7.689l-2.041,9.89a5.834,5.834,0,0,1-.606,1.7,3.6,3.6,0,0,1-.845,1.03,3.221,3.221,0,0,1-.977.54,3.133,3.133,0,0,1-.946.17,4.047,4.047,0,0,1-.963-0.11,4.177,4.177,0,0,1-.8-0.29,3.621,3.621,0,0,1-.681-0.43,6.105,6.105,0,0,1-.584-0.52l-0.509-.52-0.457.57-2.226,2.76-0.339.42,0.373,0.39a6.134,6.134,0,0,0,1.177.96,7.967,7.967,0,0,0,1.422.7,9.241,9.241,0,0,0,1.586.43,9.742,9.742,0,0,0,1.715.16,10.127,10.127,0,0,0,3.313-.52,8.513,8.513,0,0,0,2.593-1.41,8.1,8.1,0,0,0,1.847-2.14,8.385,8.385,0,0,0,1.036-2.64l3.022-14.86Zm35.308,5.9a5.8,5.8,0,0,0-.436-2.21,5.055,5.055,0,0,0-1.444-1.93,7.326,7.326,0,0,0-2.525-1.3,13.064,13.064,0,0,0-3.681-.46h-6.558l-0.1.5-4.261,20.75-0.153.75h5.305l0.1-.5,1.249-6.17h1.717a13.35,13.35,0,0,0,4.729-.77,9.753,9.753,0,0,0,3.383-2.1,8.423,8.423,0,0,0,2.014-3.03A9.677,9.677,0,0,0,651.316,7066.8Zm-5.856,2.3a4.176,4.176,0,0,1-.935,1.37,4.423,4.423,0,0,1-1.469.93,5.334,5.334,0,0,1-1.973.34h-1.367l1.319-6.35h1.707a5.75,5.75,0,0,1,1.659.19,2.412,2.412,0,0,1,.884.45,1.307,1.307,0,0,1,.385.57,2.584,2.584,0,0,1,.125.8A4.369,4.369,0,0,1,645.46,7069.1Zm62.438,1.66a6.688,6.688,0,0,0,1.254-2.16,7.573,7.573,0,0,0,.426-2.55,4.97,4.97,0,0,0-.548-2.4,4.367,4.367,0,0,0-1.573-1.62,7.046,7.046,0,0,0-2.327-.87,14.238,14.238,0,0,0-2.876-.26h-6.622l-0.1.5-4.261,20.75-0.154.75h5.306l0.1-.5,1.638-8.09h0.093a3.3,3.3,0,0,1,.883.11,1.48,1.48,0,0,1,.588.37,2.93,2.93,0,0,1,.554.86,9.3,9.3,0,0,1,.511,1.6l1.3,5.17,0.118,0.48h5.847l-0.225-.79-1.466-5.16c-0.209-.69-0.414-1.31-0.608-1.82a9.656,9.656,0,0,0-.625-1.37,4.644,4.644,0,0,0-.58-0.83,8.2,8.2,0,0,0,1.357-.58A7.131,7.131,0,0,0,707.9,7070.76Zm-4.111-2.54a2.589,2.589,0,0,1-.809.95,4.132,4.132,0,0,1-1.369.62,7.61,7.61,0,0,1-1.924.22H699.05L700,7065.4h1.413a4.008,4.008,0,0,1,2.159.41,1.134,1.134,0,0,1,.5,1.08A3,3,0,0,1,703.787,7068.22Zm-50.318-2.87-2.7,13.09-0.952,4.46h5.39l0.934-4.46,2.685-13.09,0.991-4.45h-5.436Zm38.343,4.75,0.146-.74h-5.552l-0.146.74-0.633,3.23-0.1.5h5.551l0.1-.5Zm-9.064,3.73,0.892-4.47,0.815-3.91h8.713l0.106-.5,0.7-3.3,0.158-.75H661.244l-0.107.5-0.7,3.25-0.132.7h5.809l-3.419,16.8-0.15.75h5.4l0.1-.5,3.457-17h7.613l-3.439,16.75-0.154.75h14.085l0.1-.5,0.667-3.31,0.152-.74h-8.715ZM615.1,7093.95l0.972-4.73h1.216a2.18,2.18,0,0,1,1.409.39,1.47,1.47,0,0,1,.475,1.21c0,0.09-.007.21-0.018,0.35a3.581,3.581,0,0,1-.072.46,3.717,3.717,0,0,1-.146.52,2.882,2.882,0,0,1-.246.53,3.069,3.069,0,0,1-.371.49,2.256,2.256,0,0,1-.517.4,2.692,2.692,0,0,1-.686.28,3.355,3.355,0,0,1-.878.1H615.1Zm3.389-3.11a1.352,1.352,0,0,0-.079-0.49,0.821,0.821,0,0,0-.239-0.34,0.976,0.976,0,0,0-.4-0.19,2.324,2.324,0,0,0-.559-0.06h-0.59l-0.746,3.63h0.449a2.165,2.165,0,0,0,.649-0.08,1.654,1.654,0,0,0,.507-0.23,1.485,1.485,0,0,0,.379-0.33,2.132,2.132,0,0,0,.274-0.4,2.636,2.636,0,0,0,.183-0.42,4.1,4.1,0,0,0,.109-0.42,3.167,3.167,0,0,0,.052-0.38C618.488,7091.02,618.492,7090.92,618.492,7090.84Zm7.112,3.11h-2.758l0.971-4.73h2.76l-0.115.54h-2.1l-0.3,1.47h2.013l-0.106.54h-2.015l-0.334,1.63h2.1Zm8-4.73-2.622,4.73h-0.887l-0.638-4.73h0.712l0.4,3.19,0.1,0.93,0.5-.93,1.7-3.19H633.6Zm4.733,4.73h-2.759l0.971-4.73h2.76l-0.115.54h-2.1l-0.3,1.47H638.8l-0.107.54h-2.015l-0.334,1.63h2.1Zm6.64,0h-2.789l0.972-4.73h0.668l-0.861,4.18h2.122Zm4.738,0.07a1.4,1.4,0,0,1-1.112-.42,1.715,1.715,0,0,1-.372-1.18,4.5,4.5,0,0,1,.067-0.75,4.286,4.286,0,0,1,.2-0.75,3.538,3.538,0,0,1,.339-0.68,2.478,2.478,0,0,1,.477-0.56,2.329,2.329,0,0,1,.618-0.39,2.07,2.07,0,0,1,.761-0.14,1.4,1.4,0,0,1,1.108.42,1.709,1.709,0,0,1,.371,1.18,4.4,4.4,0,0,1-.269,1.5,3.65,3.65,0,0,1-.337.68,2.458,2.458,0,0,1-.477.57,2.331,2.331,0,0,1-.618.38A2.054,2.054,0,0,1,649.712,7094.02Zm1.783-3.23a1.814,1.814,0,0,0-.048-0.44,0.955,0.955,0,0,0-.159-0.34,0.744,0.744,0,0,0-.272-0.22,0.958,0.958,0,0,0-.4-0.08,1.12,1.12,0,0,0-.546.14,1.512,1.512,0,0,0-.435.35,2.34,2.34,0,0,0-.329.5,3.978,3.978,0,0,0-.226.58,3.9,3.9,0,0,0-.131.58,3.565,3.565,0,0,0-.043.52,1.81,1.81,0,0,0,.05.44,0.92,0.92,0,0,0,.157.34,0.631,0.631,0,0,0,.272.22,0.966,0.966,0,0,0,.4.08,1.107,1.107,0,0,0,.545-0.14,1.5,1.5,0,0,0,.436-0.35,2.34,2.34,0,0,0,.329-0.5,4.218,4.218,0,0,0,.226-0.57,4.337,4.337,0,0,0,.131-0.59A3.422,3.422,0,0,0,651.5,7090.79Zm4.226,1.46-0.353,1.7h-0.659l0.971-4.73h1.331a3,3,0,0,1,.617.06,1.77,1.77,0,0,1,.5.21,1.058,1.058,0,0,1,.338.37,1.031,1.031,0,0,1,.122.52,1.7,1.7,0,0,1-.062.45,1.656,1.656,0,0,1-.19.44,2.131,2.131,0,0,1-.313.38,1.78,1.78,0,0,1-.434.32,2.292,2.292,0,0,1-.556.21,2.885,2.885,0,0,1-.677.07h-0.638Zm2.176-1.81a0.58,0.58,0,0,0-.241-0.5,1.2,1.2,0,0,0-.723-0.18h-0.7l-0.4,1.95h0.587a2.012,2.012,0,0,0,.517-0.06,1.378,1.378,0,0,0,.389-0.16,1.085,1.085,0,0,0,.275-0.23,0.99,0.99,0,0,0,.176-0.27,1.188,1.188,0,0,0,.1-0.28A1.539,1.539,0,0,0,657.9,7090.44Zm7.45,3.51H664.7l0.509-2.95,0.19-1.13-0.365.66-1.093,1.88h-0.457l-0.319-1.81-0.074-.73-0.26,1.18-0.674,2.9h-0.624l1.205-4.73h0.753l0.29,1.78,0.082,0.6,0.337-.6,1.046-1.78h0.839Zm6.733,0h-2.759l0.972-4.73h2.759l-0.114.54h-2.1l-0.3,1.47h2.014l-0.107.54H670.43l-0.334,1.63h2.1Zm5.718,0h-0.829l-0.8-2.95-0.224-.95-0.485,2.39-0.312,1.51H674.53l0.975-4.73h0.82l0.768,2.79,0.263,1.09,0.519-2.54,0.278-1.34h0.616Zm7.5-4.18h-1.435L683,7093.95h-0.668l0.856-4.18h-1.435l0.115-.55h3.538Z" transform="translate(-597.781 -7060.91)"/>
</svg>
