<svg xmlns="http://www.w3.org/2000/svg" width="80.25" height="41.47" viewBox="0 0 80.25 41.47">
  <metadata><?xpacket begin="﻿" id="W5M0MpCehiHzreSzNTczkc9d"?>
<x:xmpmeta xmlns:x="adobe:ns:meta/" x:xmptk="Adobe XMP Core 5.6-c138 79.159824, 2016/09/14-01:09:01        ">
   <rdf:RDF xmlns:rdf="http://www.w3.org/1999/02/22-rdf-syntax-ns#">
      <rdf:Description rdf:about=""/>
   </rdf:RDF>
</x:xmpmeta>
                                                                                                    
                                                                                                    
                                                                                                    
                                                                                                    
                                                                                                    
                                                                                                    
                                                                                                    
                                                                                                    
                                                                                                    
                                                                                                    
                                                                                                    
                                                                                                    
                                                                                                    
                                                                                                    
                                                                                                    
                                                                                                    
                                                                                                    
                                                                                                    
                                                                                                    
                                                                                                    
                           
<?xpacket end="w"?></metadata>
<defs>
    <style>
      .cls-1 {
        fill: #fff;
        fill-rule: evenodd;
      }
    </style>
  </defs>
  <path id="Logo_1" data-name="Logo 1" class="cls-1" d="M478.073,7082.96h6.972l0.062-22.97h-7.1Zm19.966-16.64a1.52,1.52,0,0,1,1.343-.46c0.459,0,.894.02,1.308,0.05,0.431,0.04.859,0.09,1.275,0.14l0.977-.05v-6.16l-0.636-.18a13.561,13.561,0,0,0-1.732-.24c-0.611-.05-1.316-0.08-2.1-0.08-2.787,0-4.9.77-6.293,2.29-1.363,1.49-2.057,3.76-2.057,6.73v1.43l-3.114.07v5.17l3.114-.06v7.99H497.1l-0.062-7.93,4.99,0.06v-5.05l-4.372-.06-0.062-1.47A3.605,3.605,0,0,1,498.039,7066.32Zm-27.57,4.43a10.529,10.529,0,0,0-3.664-1.57,20.371,20.371,0,0,0-4.526-.45c-9.307,0-11.551,4.64-11.792,8.53l0,0.8,7.193-.06,0.029-.65a2.429,2.429,0,0,1,.962-2.09,5.855,5.855,0,0,1,3.342-.76c1.893,0,2.765.41,3.2,0.79a2.406,2.406,0,0,1,.839,1.42,6,6,0,0,1,.133,1.12c0.008,0.25.017,0.54,0.026,0.83h-1.019c-5.1,0-8.836.74-11.438,2.25a7.838,7.838,0,0,0-2.657,2.05h22.859l0.062-4.02a13.163,13.163,0,0,0-1.067-5.08A6.766,6.766,0,0,0,470.469,7070.75Zm-32.756-2.02a11.254,11.254,0,0,0-6.612,2.51c0-.22-0.121-0.69-0.116-0.91,0.012-1.04.084-2.11,0.084-3.19l-0.078-7.16h-7.024v23.04h7.1v-5.01a10.617,10.617,0,0,1,2.888-2.1,5.511,5.511,0,0,1,2.6-.69,4.413,4.413,0,0,1,1.486.21,1.615,1.615,0,0,1,.752.53,2.882,2.882,0,0,1,.482,1.11,10.482,10.482,0,0,1,.174,2.07l-0.061,3.82h7.6l-0.062-4.22C446.924,7072.19,443.737,7068.73,437.713,7068.73Zm-9.39,32.09a7.849,7.849,0,0,1-2.449-.34,4.926,4.926,0,0,1-1.746-.93,3.906,3.906,0,0,1-1.062-1.44,5.029,5.029,0,0,1-.392-1.83h1.685a3.11,3.11,0,0,0,.4,1.32,2.965,2.965,0,0,0,.851.92,3.791,3.791,0,0,0,1.191.54,5.964,5.964,0,0,0,1.434.17,5.136,5.136,0,0,0,1.349-.16,3.152,3.152,0,0,0,1.04-.45,2.158,2.158,0,0,0,.663-0.72,1.912,1.912,0,0,0,.235-0.95,1.87,1.87,0,0,0-.214-0.93,1.835,1.835,0,0,0-.7-0.67,5.568,5.568,0,0,0-1.278-.51c-0.527-.15-1.174-0.31-1.938-0.47a12.591,12.591,0,0,1-1.923-.58,4.735,4.735,0,0,1-1.326-.76,2.792,2.792,0,0,1-.768-1.02,3.476,3.476,0,0,1,.093-2.8,3.437,3.437,0,0,1,.963-1.17,4.535,4.535,0,0,1,1.489-.77,6.131,6.131,0,0,1,1.923-.28,6.824,6.824,0,0,1,2.032.28,4.643,4.643,0,0,1,1.578.79,3.8,3.8,0,0,1,1.046,1.26,3.853,3.853,0,0,1,.412,1.69h-1.7c-0.175-1.62-1.27-2.42-3.288-2.42a3.959,3.959,0,0,0-2.275.55,1.731,1.731,0,0,0-.8,1.49,1.654,1.654,0,0,0,.147.73,1.256,1.256,0,0,0,.5.52,3.53,3.53,0,0,0,.938.42c0.392,0.12.878,0.24,1.46,0.37,0.4,0.08.8,0.17,1.223,0.27a9.785,9.785,0,0,1,1.217.35,6.06,6.06,0,0,1,1.121.5,3.615,3.615,0,0,1,.925.7,3.173,3.173,0,0,1,.628.99,3.481,3.481,0,0,1,.228,1.32,3.6,3.6,0,0,1-.365,1.62,3.775,3.775,0,0,1-1.021,1.26,4.871,4.871,0,0,1-1.557.84A6.208,6.208,0,0,1,428.323,7100.82Zm18.891-12.01h-4.385v11.77h-1.75v-11.77h-4.356v-1.58h10.491v1.58Zm9.837,12.01a7.491,7.491,0,0,1-2.1-.25,4.669,4.669,0,0,1-1.437-.68,3.35,3.35,0,0,1-.912-1,5.094,5.094,0,0,1-.5-1.23,6.919,6.919,0,0,1-.215-1.35c-0.03-.46-0.045-0.92-0.045-1.36v-7.72h1.752v7.69a8.414,8.414,0,0,0,.232,2.18,3.015,3.015,0,0,0,.67,1.32,2.238,2.238,0,0,0,1.08.65,6.469,6.469,0,0,0,1.476.16,5.99,5.99,0,0,0,1.477-.17,2.208,2.208,0,0,0,1.076-.65,3.179,3.179,0,0,0,.654-1.32,8.631,8.631,0,0,0,.228-2.17v-7.69h1.768v7.72a11.845,11.845,0,0,1-.234,2.47,4.583,4.583,0,0,1-.822,1.85,3.755,3.755,0,0,1-1.594,1.15A6.929,6.929,0,0,1,457.051,7100.82Zm21.5-6.99q0,6.75-6.754,6.75h-4.2v-13.35h4.2Q478.558,7087.23,478.554,7093.83Zm-1.809,0a8.9,8.9,0,0,0-.23-2.1,3.793,3.793,0,0,0-.793-1.58,3.6,3.6,0,0,0-1.522-.99,7.211,7.211,0,0,0-2.416-.35h-2.428V7099h2.428a6.91,6.91,0,0,0,2.405-.36,3.552,3.552,0,0,0,1.528-1.01,3.882,3.882,0,0,0,.8-1.63A9.394,9.394,0,0,0,476.745,7093.83Zm9.049,6.75h-1.752v-13.35h1.752v13.35Zm10.73-13.59a6.232,6.232,0,0,1,2.54.5,5.879,5.879,0,0,1,2,1.4,6.442,6.442,0,0,1,1.319,2.18,8.613,8.613,0,0,1,0,5.63,6.56,6.56,0,0,1-1.306,2.19,5.863,5.863,0,0,1-2,1.42,6.3,6.3,0,0,1-2.555.51,6.452,6.452,0,0,1-2.553-.5,5.911,5.911,0,0,1-2.007-1.42,6.365,6.365,0,0,1-1.312-2.18,8.229,8.229,0,0,1-.469-2.83,8.078,8.078,0,0,1,.473-2.83,6.419,6.419,0,0,1,1.323-2.18,5.9,5.9,0,0,1,2.01-1.4A6.412,6.412,0,0,1,496.524,7086.99Zm-0.01,12.31a4.522,4.522,0,0,0,1.819-.36,4,4,0,0,0,1.434-1.07,4.9,4.9,0,0,0,.94-1.7,7.859,7.859,0,0,0,0-4.56,4.892,4.892,0,0,0-.94-1.68,3.976,3.976,0,0,0-1.423-1.05,4.423,4.423,0,0,0-1.792-.36,4.567,4.567,0,0,0-1.824.36,4.152,4.152,0,0,0-1.443,1.06,4.872,4.872,0,0,0-.945,1.69,6.965,6.965,0,0,0-.336,2.26,7.235,7.235,0,0,0,.331,2.28,4.9,4.9,0,0,0,.935,1.7,4.04,4.04,0,0,0,1.428,1.07A4.5,4.5,0,0,0,496.514,7099.3Z" transform="translate(-422.688 -7059.34)"/>
</svg>
