<svg xmlns="http://www.w3.org/2000/svg" width="116.53" height="28.35" viewBox="0 0 116.53 28.35">
  <metadata><?xpacket begin="﻿" id="W5M0MpCehiHzreSzNTczkc9d"?>
<x:xmpmeta xmlns:x="adobe:ns:meta/" x:xmptk="Adobe XMP Core 5.6-c138 79.159824, 2016/09/14-01:09:01        ">
   <rdf:RDF xmlns:rdf="http://www.w3.org/1999/02/22-rdf-syntax-ns#">
      <rdf:Description rdf:about=""/>
   </rdf:RDF>
</x:xmpmeta>
                                                                                                    
                                                                                                    
                                                                                                    
                                                                                                    
                                                                                                    
                                                                                                    
                                                                                                    
                                                                                                    
                                                                                                    
                                                                                                    
                                                                                                    
                                                                                                    
                                                                                                    
                                                                                                    
                                                                                                    
                                                                                                    
                                                                                                    
                                                                                                    
                                                                                                    
                                                                                                    
                           
<?xpacket end="w"?></metadata>
<defs>
    <style>
      .cls-1 {
        fill: #fff;
        fill-rule: evenodd;
      }
    </style>
  </defs>
  <path id="Logo_5" data-name="Logo 5" class="cls-1" d="M1250.24,7083.98h-8.18c0-.35.01-0.72,0.01-1.08s0.02-.73.02-1.07l1.58-.08h0a0.418,0.418,0,0,0,.41-0.46l-0.01-.62c-0.03-3.31-.06-6.8-0.12-10.58l-0.01-.33h-0.82l-0.08.22c-1.91,5.46-3.53,9.31-5.02,12.77-0.2.01-.46,0.01-0.76,0.01-0.52.01-1.14,0.02-1.7,0.02-1.66-3.96-3.13-7.93-4.89-13.23l-0.07-.22h-0.86l-0.01.32c-0.04,2.26-.08,4.4-0.13,6.51-0.03,1.75-.07,3.48-0.1,5.22l-0.01.32,0.32,0.02,2.01,0.11c0,0.69,0,1.45-.02,2.15h-7.02v-2.15l1.41-.08h0.07l0.06-.03a0.469,0.469,0,0,0,.28-0.43c0.03-4.44.1-10.52,0.17-15.48v-0.32l-0.31-.01-1.52-.09c0.01-.39.01-0.8,0.02-1.2s0.01-.78.01-1.14h7.79c0.97,2.62,2.94,8.4,4.39,12.65l0.24,0.71,0.08,0.22h0.73l0.08-.22c0.63-1.76,1.3-3.65,1.96-5.53,0.99-2.8,1.97-5.58,2.78-7.83h7.14c0,0.36,0,.74-0.01,1.13s-0.01.82-.02,1.21l-1.35.09h0a0.438,0.438,0,0,0-.41.46c0.02,2.46.03,5.18,0.04,7.92,0,2.56.01,5.14,0.03,7.56v0.31l0.31,0.02,1.51,0.08c0,0.69,0,1.45-.02,2.15h0Zm22.24,0h-8.69c0-.72.01-1.46,0.03-2.18l1.32-.08a0.446,0.446,0,0,0,.4-0.6c-0.06-.18-0.13-0.42-0.22-0.69-0.15-.49-0.32-1.06-0.45-1.39a0.5,0.5,0,0,0-.54-0.37l-6.15.06-0.27.01-0.05.25c-0.07.29-.15,0.61-0.23,0.94-0.13.49-.26,1-0.34,1.43l-0.07.37,0.38,0.02,1.51,0.08c0,0.7,0,1.43-.02,2.15h-7.29c0-.72.03-1.45,0.05-2.15l1.23-.08a0.563,0.563,0,0,0,.49-0.39c2.13-5.64,5.04-13.47,6.88-18.47,0.66-.04,2.06-0.04,4.07-0.04,1.07,3.08,2.33,6.85,3.56,10.5,0.98,2.94,1.94,5.79,2.75,8.14l0.07,0.21,0.21,0.02,1.39,0.11c0,0.7,0,1.43-.02,2.15h0Zm-11.42-15.62-0.07.24c-0.46,1.49-.94,3.04-1.4,4.53l-0.86,2.81a0.508,0.508,0,0,0,.05.47l0.1,0.13,0.23,0.03h5.1l-0.13-.43c-0.48-1.49-.99-3.21-1.53-4.99-0.25-.85-0.51-1.71-0.76-2.55l-0.08-.24h-0.65Zm25.71,15.69c-0.76-1.37-1.98-4.26-2.72-6.02l-0.3-.69a2.212,2.212,0,0,0-2.09-1.63,3.361,3.361,0,0,0-.87.08l-0.22.08-0.01.23-0.03,5.35v0.32l0.31,0.01,1.47,0.08c-0.02.72-.02,1.41-0.02,2.12h-8.3c0.02-.71.02-1.41,0.02-2.12l1.32-.08a0.427,0.427,0,0,0,.41-0.42l0.03-15.72v-0.32l-0.32-.01-1.47-.06c0-.74,0-1.46.02-2.18,2.9-.04,5.31-0.06,7.36-0.06a17.326,17.326,0,0,1,4.81.46,5.64,5.64,0,0,1,4.49,5.03,5.829,5.829,0,0,1-3.91,5.47l-0.21.09v0.62l0.19,0.09c1.23,0.59,1.97,2.14,3.21,4.72l0.39,0.81c0.33,0.75.63,1.33,1.26,1.38l1.3,0.17c0,0.34-.01.7-0.02,1.05s-0.01.72-.01,1.08c-0.26.01-.56,0.01-0.86,0.02-0.46,0-.92.01-1.24,0.01-0.38,0-1.32.01-2.23,0.02-0.7.01-1.38,0.01-1.76,0.02h0Zm-4.75-19.01a3.847,3.847,0,0,0-1.16.12l-0.23.07v0.24l-0.07,7.84v0.26l0.25,0.06a3.543,3.543,0,0,0,.88.05,3.8,3.8,0,0,0,3.92-4.09c0-2.55-1.58-4.55-3.59-4.55h0Zm17.84,19.27a18.543,18.543,0,0,1-4.82-.58c-0.22-1.79-.42-3.55-0.62-5.3l-0.05-.37c0.98-.21,2.01-0.38,2.89-0.5l0.85,3.02a0.766,0.766,0,0,0,.35.49,4.01,4.01,0,0,0,2.36.68,4.259,4.259,0,0,0,2.54-.74,2.523,2.523,0,0,0,.92-2.05c0-1.91-1.07-2.31-3.64-3.27-3.81-1.42-5.73-3.52-5.73-6.23a6.265,6.265,0,0,1,2.15-4.7c1.45-1.32,3.88-2.05,6.85-2.05a14.189,14.189,0,0,1,4.11.5c0.18,1.84.33,3.71,0.46,5.57-0.83.12-1.78,0.23-2.69,0.34l-0.13.01-0.7-2.81a0.854,0.854,0,0,0-.22-0.39,2.98,2.98,0,0,0-1.89-.62,3.56,3.56,0,0,0-2.19.66,2.7,2.7,0,0,0-1.03,2.16c0,1.89.9,2.29,4.01,3.37,3.76,1.29,5.36,3.06,5.36,5.93a6.373,6.373,0,0,1-2.33,5.06c-1.58,1.24-3.74,1.82-6.81,1.82h0Zm-95.19-18.87a6.1,6.1,0,1,1-6.1-6.1A6.1,6.1,0,0,1,1204.67,7065.44Zm0,16.15a6.1,6.1,0,1,1-6.1-6.1A6.1,6.1,0,0,1,1204.67,7081.59Zm13.25-8.08a6.1,6.1,0,1,1-6.09-6.09A6.1,6.1,0,0,1,1217.92,7073.51Z" transform="translate(-1192.47 -7059.34)"/>
</svg>
