<svg xmlns="http://www.w3.org/2000/svg" width="56.75" height="56.78" viewBox="0 0 56.75 56.78">
  <metadata><?xpacket begin="﻿" id="W5M0MpCehiHzreSzNTczkc9d"?>
<x:xmpmeta xmlns:x="adobe:ns:meta/" x:xmptk="Adobe XMP Core 5.6-c138 79.159824, 2016/09/14-01:09:01        ">
   <rdf:RDF xmlns:rdf="http://www.w3.org/1999/02/22-rdf-syntax-ns#">
      <rdf:Description rdf:about=""/>
   </rdf:RDF>
</x:xmpmeta>
                                                                                                    
                                                                                                    
                                                                                                    
                                                                                                    
                                                                                                    
                                                                                                    
                                                                                                    
                                                                                                    
                                                                                                    
                                                                                                    
                                                                                                    
                                                                                                    
                                                                                                    
                                                                                                    
                                                                                                    
                                                                                                    
                                                                                                    
                                                                                                    
                                                                                                    
                                                                                                    
                           
<?xpacket end="w"?></metadata>
<defs>
    <style>
      .cls-1 {
        fill: #fff;
        fill-rule: evenodd;
      }
    </style>
  </defs>
  <path id="Arrow_Icon" data-name="Arrow Icon" class="cls-1" d="M509,3786.49a28.39,28.39,0,1,0,28.387,28.39A28.387,28.387,0,0,0,509,3786.49Zm8.988,31.08-7.874,7.88a1.585,1.585,0,0,1-2.228,0l-7.874-7.88a1.578,1.578,0,0,1,0-2.23,1.576,1.576,0,0,1,2.226,0l4.757,4.68,0.039-14.59a1.774,1.774,0,0,1,1.966-1.57,1.907,1.907,0,0,1,2,1.69l-0.078,14.32,4.835-4.53A1.575,1.575,0,1,1,517.987,3817.57Z" transform="translate(-480.625 -3786.5)"/>
</svg>
