<svg xmlns="http://www.w3.org/2000/svg" width="12" height="12" viewBox="0 0 12 12"><g><g><path fill="#fff" d="M11.896 9.485l-3.58-3.58 3.58-3.58a.379.379 0 0 0 .084-.132.367.367 0 0 0-.084-.39L10.203.111a.366.366 0 0 0-.52 0l-3.58 3.58L2.522.112A.352.352 0 0 0 2.39.028.365.365 0 0 0 2 .113L.31 1.803a.362.362 0 0 0-.083.39.347.347 0 0 0 .082.132l3.581 3.58-3.58 3.58a.35.35 0 0 0-.083.132.363.363 0 0 0 .082.39L2 11.697a.37.37 0 0 0 .522 0l3.58-3.58 3.581 3.58a.365.365 0 0 0 .52 0l1.693-1.69a.368.368 0 0 0 0-.522"/></g></g></svg>