<svg xmlns="http://www.w3.org/2000/svg" width="111.81" height="33.12" viewBox="0 0 111.81 33.12">
  <metadata><?xpacket begin="﻿" id="W5M0MpCehiHzreSzNTczkc9d"?>
<x:xmpmeta xmlns:x="adobe:ns:meta/" x:xmptk="Adobe XMP Core 5.6-c138 79.159824, 2016/09/14-01:09:01        ">
   <rdf:RDF xmlns:rdf="http://www.w3.org/1999/02/22-rdf-syntax-ns#">
      <rdf:Description rdf:about=""/>
   </rdf:RDF>
</x:xmpmeta>
                                                                                                    
                                                                                                    
                                                                                                    
                                                                                                    
                                                                                                    
                                                                                                    
                                                                                                    
                                                                                                    
                                                                                                    
                                                                                                    
                                                                                                    
                                                                                                    
                                                                                                    
                                                                                                    
                                                                                                    
                                                                                                    
                                                                                                    
                                                                                                    
                                                                                                    
                                                                                                    
                           
<?xpacket end="w"?></metadata>
<defs>
    <style>
      .cls-1 {
        fill: #fff;
        fill-rule: evenodd;
      }
    </style>
  </defs>
  <path id="Logo_6" data-name="Logo 6" class="cls-1" d="M1432.84,7060.9h-5.32l-0.1.5-2.77,13.39a8.507,8.507,0,0,1-.59,1.93,3.757,3.757,0,0,1-.83,1.21,2.92,2.92,0,0,1-1.1.65,5.236,5.236,0,0,1-1.55.21,4.706,4.706,0,0,1-1.22-.14,1.344,1.344,0,0,1-1.01-.92,3.279,3.279,0,0,1-.12-0.95,8.585,8.585,0,0,1,.18-1.61l2.76-13.52,0.15-.75h-5.3l-0.1.5-2.75,13.42a10.96,10.96,0,0,0-.29,2.39,7.261,7.261,0,0,0,.39,2.44,4.706,4.706,0,0,0,1.32,1.98,6.288,6.288,0,0,0,2.31,1.23,11.133,11.133,0,0,0,3.18.4,12.554,12.554,0,0,0,3.58-.48,8.152,8.152,0,0,0,2.91-1.51,8.541,8.541,0,0,0,2.09-2.59,13.467,13.467,0,0,0,1.24-3.6l2.78-13.43Zm-18.83,0h-13.03l-0.1.5-0.67,3.22-0.15.75h7.69l-2.04,9.89a5.889,5.889,0,0,1-.61,1.7,3.526,3.526,0,0,1-.84,1.03,3.294,3.294,0,0,1-.98.54,3.124,3.124,0,0,1-.94.17,4.107,4.107,0,0,1-.97-0.11,4.228,4.228,0,0,1-.8-0.29,3.712,3.712,0,0,1-.68-0.43,6.076,6.076,0,0,1-.59-0.52l-0.51-.52-0.45.57-2.23,2.76-0.34.42,0.37,0.39a6.185,6.185,0,0,0,1.18.96,8.152,8.152,0,0,0,1.42.7,9.31,9.31,0,0,0,1.59.43,9.713,9.713,0,0,0,1.71.16,10.187,10.187,0,0,0,3.32-.52,8.509,8.509,0,0,0,2.59-1.41,8.072,8.072,0,0,0,1.85-2.14,8.4,8.4,0,0,0,1.03-2.64l3.03-14.86Zm35.31,5.9a5.809,5.809,0,0,0-.44-2.21,5.126,5.126,0,0,0-1.44-1.93,7.343,7.343,0,0,0-2.53-1.3,13.047,13.047,0,0,0-3.68-.46h-6.56l-0.1.5-4.26,20.75-0.15.75h5.3l0.1-.5,1.25-6.17h1.72a13.364,13.364,0,0,0,4.73-.77,9.711,9.711,0,0,0,3.38-2.1,8.4,8.4,0,0,0,2.02-3.03A9.7,9.7,0,0,0,1449.32,7066.8Zm-5.86,2.3a4.085,4.085,0,0,1-.94,1.37,4.352,4.352,0,0,1-1.46.93,5.376,5.376,0,0,1-1.98.34h-1.36l1.31-6.35h1.71a5.73,5.73,0,0,1,1.66.19,2.327,2.327,0,0,1,.88.45,1.328,1.328,0,0,1,.39.57,2.673,2.673,0,0,1,.12.8A4.4,4.4,0,0,1,1443.46,7069.1Zm62.44,1.66a6.571,6.571,0,0,0,1.25-2.16,7.625,7.625,0,0,0,.43-2.55,5,5,0,0,0-.55-2.4,4.429,4.429,0,0,0-1.57-1.62,7.064,7.064,0,0,0-2.33-.87,14.2,14.2,0,0,0-2.88-.26h-6.62l-0.1.5-4.26,20.75-0.15.75h5.3l0.1-.5,1.64-8.09h0.09a3.33,3.33,0,0,1,.89.11,1.468,1.468,0,0,1,.58.37,2.782,2.782,0,0,1,.56.86,8.653,8.653,0,0,1,.51,1.6l1.3,5.17,0.12,0.48h5.85l-0.23-.79-1.46-5.16c-0.21-.69-0.42-1.31-0.61-1.82a9.867,9.867,0,0,0-.63-1.37,4.5,4.5,0,0,0-.58-0.83,8.3,8.3,0,0,0,1.36-.58A7.121,7.121,0,0,0,1505.9,7070.76Zm-4.11-2.54a2.64,2.64,0,0,1-.81.95,4.223,4.223,0,0,1-1.37.62,7.616,7.616,0,0,1-1.92.22h-0.64l0.95-4.61h1.41a4.009,4.009,0,0,1,2.16.41,1.147,1.147,0,0,1,.5,1.08A3.1,3.1,0,0,1,1501.79,7068.22Zm-50.32-2.87-2.7,13.09-0.96,4.46h5.39l0.94-4.46,2.68-13.09,0.99-4.45h-5.43Zm38.34,4.75,0.15-.74h-5.55l-0.15.74-0.63,3.23-0.1.5h5.55l0.1-.5Zm-9.06,3.73,0.89-4.47,0.81-3.91h8.72l0.1-.5,0.7-3.3,0.16-.75h-32.89l-0.1.5-0.7,3.25-0.13.7h5.81l-3.42,16.8-0.15.75h5.4l0.1-.5,3.46-17h7.61l-3.44,16.75-0.15.75h14.08l0.1-.5,0.67-3.31,0.15-.74h-8.71Zm-67.65,20.12,0.97-4.73h1.22a2.194,2.194,0,0,1,1.41.39,1.463,1.463,0,0,1,.48,1.21c0,0.09-.01.21-0.02,0.35s-0.04.3-.07,0.46-0.09.34-.15,0.52a2.838,2.838,0,0,1-.25.53,2.743,2.743,0,0,1-.37.49,2.112,2.112,0,0,1-.52.4,2.619,2.619,0,0,1-.68.28,3.381,3.381,0,0,1-.88.1h-1.14Zm3.39-3.11a1.2,1.2,0,0,0-.08-0.49,0.756,0.756,0,0,0-.24-0.34,0.932,0.932,0,0,0-.4-0.19,2.344,2.344,0,0,0-.56-0.06h-0.59l-0.74,3.63h0.45a2.228,2.228,0,0,0,.65-0.08,1.636,1.636,0,0,0,.5-0.23,1.352,1.352,0,0,0,.38-0.33,1.759,1.759,0,0,0,.27-0.4,2.6,2.6,0,0,0,.19-0.42c0.04-.15.08-0.29,0.11-0.42s0.04-.26.05-0.38S1416.49,7090.92,1416.49,7090.84Zm7.11,3.11h-2.75l0.97-4.73h2.76l-0.12.54h-2.09l-0.31,1.47h2.02l-0.11.54h-2.02l-0.33,1.63h2.1Zm8-4.73-2.62,4.73h-0.89l-0.64-4.73h0.72l0.39,3.19,0.1,0.93,0.5-.93,1.7-3.19h0.74Zm4.73,4.73h-2.76l0.98-4.73h2.76l-0.12.54h-2.09l-0.31,1.47h2.01l-0.1.54h-2.02l-0.33,1.63h2.1Zm6.64,0h-2.78l0.97-4.73h0.66l-0.86,4.18h2.13Zm4.74,0.07a1.411,1.411,0,0,1-1.11-.42,1.7,1.7,0,0,1-.37-1.18,4.57,4.57,0,0,1,.27-1.5,3.325,3.325,0,0,1,.34-0.68,2.362,2.362,0,0,1,1.09-.95,2.057,2.057,0,0,1,.76-0.14,1.411,1.411,0,0,1,1.11.42,1.7,1.7,0,0,1,.37,1.18,3.953,3.953,0,0,1-.07.75,4.165,4.165,0,0,1-.2.75,3.325,3.325,0,0,1-.34.68,2.384,2.384,0,0,1-.47.57,2.3,2.3,0,0,1-.62.38A2.057,2.057,0,0,1,1447.71,7094.02Zm1.79-3.23a1.971,1.971,0,0,0-.05-0.44,1.071,1.071,0,0,0-.16-0.34,0.729,0.729,0,0,0-.27-0.22,0.983,0.983,0,0,0-.4-0.08,1.124,1.124,0,0,0-.55.14,1.441,1.441,0,0,0-.43.35,2.169,2.169,0,0,0-.33.5,4.116,4.116,0,0,0-.23.58,4.028,4.028,0,0,0-.13.58,3.282,3.282,0,0,0-.04.52,1.521,1.521,0,0,0,.05.44,0.881,0.881,0,0,0,.15.34,0.615,0.615,0,0,0,.28.22,0.949,0.949,0,0,0,.4.08,1.085,1.085,0,0,0,.54-0.14,1.617,1.617,0,0,0,.44-0.35,3.094,3.094,0,0,0,.33-0.5,4.45,4.45,0,0,0,.22-0.57,3.3,3.3,0,0,0,.13-0.59A3.368,3.368,0,0,0,1449.5,7090.79Zm4.22,1.46-0.35,1.7h-0.66l0.97-4.73h1.33a3.034,3.034,0,0,1,.62.06,1.751,1.751,0,0,1,.5.21,1,1,0,0,1,.34.37,1.052,1.052,0,0,1,.12.52,1.7,1.7,0,0,1-.25.89,2.716,2.716,0,0,1-.31.38,1.776,1.776,0,0,1-.44.32,2.245,2.245,0,0,1-.55.21,2.957,2.957,0,0,1-.68.07h-0.64Zm2.18-1.81a0.582,0.582,0,0,0-.24-0.5,1.228,1.228,0,0,0-.73-0.18h-0.7l-0.4,1.95h0.59a1.929,1.929,0,0,0,.51-0.06,1.385,1.385,0,0,0,.39-0.16,0.934,0.934,0,0,0,.28-0.23,0.948,0.948,0,0,0,.17-0.27,1.048,1.048,0,0,0,.1-0.28A1.39,1.39,0,0,0,1455.9,7090.44Zm7.45,3.51h-0.65l0.51-2.95,0.19-1.13-0.37.66-1.09,1.88h-0.46l-0.31-1.81-0.08-.73-0.26,1.18-0.67,2.9h-0.63l1.21-4.73h0.75l0.29,1.78,0.08,0.6,0.34-.6,1.05-1.78h0.83Zm6.73,0h-2.76l0.97-4.73h2.76l-0.11.54h-2.1l-0.3,1.47h2.01l-0.11.54h-2.01l-0.33,1.63h2.09Zm5.72,0h-0.83l-0.8-2.95-0.23-.95-0.48,2.39-0.31,1.51h-0.62l0.97-4.73h0.83l0.76,2.79,0.27,1.09,0.52-2.54,0.27-1.34h0.62Zm7.49-4.18h-1.43l-0.86,4.18h-0.67l0.86-4.18h-1.44l0.12-.55h3.54Z" transform="translate(-1395.78 -7060.91)"/>
</svg>
